<?xml version="1.0" encoding="utf-8"?>
<!-- Generator: Adobe Illustrator 16.0.0, SVG Export Plug-In . SVG Version: 6.00 Build 0)  -->
<!DOCTYPE svg PUBLIC "-//W3C//DTD SVG 1.1//EN" "http://www.w3.org/Graphics/SVG/1.1/DTD/svg11.dtd">
<svg version="1.1" id="Capa_1" xmlns="http://www.w3.org/2000/svg" xmlns:xlink="http://www.w3.org/1999/xlink" x="0px" y="0px"
	 width="126.628px" height="60.363px" viewBox="0 0 126.628 60.363" enable-background="new 0 0 126.628 60.363"
	 xml:space="preserve">
<g>
	<g>
		<path fill="#D672A9" d="M124.026,49.597l-12.208-12.229l12.208-12.228c1.126-1.182,1.69-2.612,1.69-4.294
			c0-1.68-0.564-3.08-1.69-4.2c-1.252-1.182-2.676-1.788-4.273-1.819c-1.596-0.032-2.989,0.544-4.178,1.726L103.083,28.78
			L90.875,16.646c-1.254-1.12-2.662-1.741-4.226-1.867c-1.566-0.124-3.037,0.5-4.415,1.867c-1.066,1.246-1.658,2.646-1.785,4.2
			c-0.003,0.043-0.001,0.084-0.003,0.123c-1.982-1.885-4.259-3.396-6.853-4.511c-2.753-1.18-5.666-1.773-8.732-1.773
			c-3.194,0.126-6.183,0.794-8.968,2.007c-2.787,1.215-5.198,2.832-7.233,4.854c-1.797,1.787-3.23,3.854-4.345,6.174
			c-1.083-2.268-2.576-4.41-4.529-6.406c-1.876-1.741-3.914-3.128-6.103-4.155c-2.192-1.026-4.447-1.71-6.762-2.053
			c-2.317-0.343-4.648-0.343-6.996,0c-2.349,0.343-4.62,1.074-6.811,2.193V6.563c0-0.806-0.154-1.601-0.467-2.379
			c-0.314-0.779-0.768-1.448-1.362-2.008c-0.596-0.561-1.268-1.012-2.02-1.355C8.514,0.482,7.73,0.342,6.918,0.403
			C6.167,0.342,5.431,0.466,4.709,0.776C3.992,1.088,3.35,1.51,2.787,2.036c-0.563,0.529-1.035,1.153-1.41,1.866
			C1.002,4.62,0.814,5.351,0.814,6.097v31.271c0,3.05,0.623,5.944,1.877,8.682c1.25,2.74,2.925,5.135,5.025,7.188
			c2.096,2.053,4.522,3.688,7.278,4.9c2.754,1.215,5.633,1.821,8.639,1.821c3.066,0,5.979-0.593,8.735-1.774
			c2.755-1.182,5.163-2.8,7.231-4.854c1.882-1.869,3.395-4.039,4.575-6.478c1.165,2.515,2.697,4.729,4.626,6.617
			c2.066,2.023,4.475,3.595,7.231,4.715c2.754,1.12,5.697,1.681,8.829,1.681c3.192,0,6.167-0.59,8.922-1.774
			c2.509-1.076,4.704-2.535,6.618-4.335c0,0.122-0.006,0.242,0.002,0.368c0.095,1.648,0.706,3.034,1.832,4.152
			c1.252,1.248,2.723,1.805,4.415,1.683c1.689-0.125,3.099-0.684,4.226-1.683l12.208-12.228l12.208,11.95
			c1.254,1.306,2.738,1.96,4.46,1.96c1.721,0,3.148-0.562,4.273-1.683c1.253-1.242,1.846-2.721,1.784-4.433
			C125.747,52.134,125.152,50.717,124.026,49.597 M75.37,44.138c0,2.021-1.647,3.66-3.683,3.66h-1.493l-5.453,4.065
			c-0.153,0.115-0.335,0.171-0.518,0.171c-0.16,0-0.32-0.043-0.462-0.133c-0.302-0.19-0.455-0.548-0.379-0.896l0.667-3.208h-6.014
			c-2.036,0-3.682-1.639-3.682-3.66V30.569c0-2.022,1.646-3.66,3.682-3.66h13.651c2.035,0,3.683,1.638,3.683,3.66V44.138z
			 M85.836,46.015c1.165-2.685,1.751-5.564,1.751-8.647c0-3.082-0.581-5.955-1.732-8.63l8.682,8.63L85.836,46.015z"/>
	</g>
</g>
</svg>
